<mxfile host="app.diagrams.net" modified="2024-03-26T03:03:22.997Z" agent="Mozilla/5.0 (Windows NT 10.0; Win64; x64; rv:123.0) Gecko/20100101 Firefox/123.0" version="24.0.7" etag="qDp2diFsmaeXrBEg4NsU" type="github">
  <diagram name="Page-1" id="4HuvUPnp5_llciXmeK-o">
    <mxGraphModel>
      <root>
        <mxCell id="0" />
        <mxCell id="1" parent="0" />
      </root>
    </mxGraphModel>
  </diagram>
</mxfile>
